<svg xmlns="http://www.w3.org/2000/svg" viewBox="0 0 64 64">
  <defs>
    <linearGradient id="tile" x1="0" y1="0" x2="1" y2="1">
      <stop offset="0" stop-color="#6cb2ff"/>
      <stop offset="1" stop-color="#2b7de9"/>
    </linearGradient>
  </defs>
  <!-- Soft rounded tile -->
  <rect x="2" y="2" width="60" height="60" rx="18" fill="url(#tile)"/>
  <!-- Chunky rounded "D": a soft offset shadow, then the letter -->
  <path transform="translate(1.5 2.5)" fill="#0b3fd6" fill-opacity="0.35" fill-rule="evenodd"
        d="M22 14h9c11 0 19 8 19 18s-8 18-19 18h-9a5 5 0 0 1-5-5V19a5 5 0 0 1 5-5zM26 23v18h5c6 0 10-4 10-9s-4-9-10-9z"/>
  <path fill="#ffffff" fill-rule="evenodd"
        d="M22 14h9c11 0 19 8 19 18s-8 18-19 18h-9a5 5 0 0 1-5-5V19a5 5 0 0 1 5-5zM26 23v18h5c6 0 10-4 10-9s-4-9-10-9z"/>
</svg>
